<svg width="20" height="19" viewBox="0 0 20 19" fill="none" xmlns="http://www.w3.org/2000/svg">
<path d="M8.54113 0.0235369C3.83131 0.0235369 0 3.71883 0 8.26146C0 12.8041 3.83131 16.4994 8.54113 16.4994C9.98092 16.4994 11.3963 16.1699 12.5921 15.5344C12.6878 15.6455 12.794 15.748 12.9093 15.8403L15.3496 18.194C15.575 18.4386 15.8497 18.6361 16.1571 18.7745C16.4645 18.913 16.7979 18.9893 17.137 18.999C17.476 19.0086 17.8135 18.9513 18.1288 18.8305C18.4441 18.7098 18.7304 18.5282 18.9703 18.2968C19.2101 18.0655 19.3984 17.7893 19.5236 17.4852C19.6488 17.1812 19.7082 16.8556 19.6982 16.5286C19.6883 16.2016 19.6091 15.88 19.4656 15.5835C19.3221 15.2871 19.1172 15.0221 18.8637 14.8047L16.4234 12.451C16.3045 12.3363 16.1737 12.2338 16.0329 12.145C16.6918 10.9917 17.1067 9.65013 17.1067 8.23792C17.1067 3.6953 13.2754 0 8.56553 0L8.54113 0.0235369ZM8.54113 2.37723C11.9332 2.37723 14.6419 4.98983 14.6419 8.26146C14.6419 9.81489 14.0563 11.2506 13.0313 12.3098C13.0069 12.3333 12.9825 12.3569 12.9581 12.3804C12.8428 12.4728 12.7367 12.5752 12.6409 12.6864C11.5671 13.6279 10.1029 14.1692 8.51673 14.1692C5.12468 14.1692 2.41592 11.5566 2.41592 8.28499C2.41592 5.01336 5.12468 2.40076 8.51673 2.40076L8.54113 2.37723Z" fill="black"/>
</svg>
